<svg xmlns="http://www.w3.org/2000/svg" width="197.197" height="41.415" viewBox="0 0 197.197 41.415"><defs><style>.a{fill:#00266c;}.b{fill:#009dd0;}</style></defs><g transform="translate(0 0)"><path class="a" d="M233.2,304.06l-1.629-3.764h-9.157l-1.665,3.764H215.39l11.328-24.321h.8l11.147,24.321Zm-6.225-14.079L224.04,296.6h5.936l-2.859-6.623Z" transform="translate(-215.39 -278.675)"/><path class="a" d="M410.364,300.106l-3.019-2.209a12.381,12.381,0,0,0,1.334-5.781,11.843,11.843,0,0,0-3.583-8.795,12.464,12.464,0,0,0-9.193-3.583,12.723,12.723,0,0,0-9.229,3.583,11.883,11.883,0,0,0-3.655,8.795,12.086,12.086,0,0,0,3.474,8.867,14.275,14.275,0,0,0,17.334,1.022l3.353,2.453Zm-14.425.046a7,7,0,0,1-5.465-2.28,8.4,8.4,0,0,1-2.027-5.755,7.968,7.968,0,0,1,2.1-5.646,7,7,0,0,1,5.393-2.28,6.819,6.819,0,0,1,5.357,2.28,8.1,8.1,0,0,1,2.063,5.646,8.285,8.285,0,0,1-2.063,5.718A6.732,6.732,0,0,1,395.94,300.152Z" transform="translate(-355.247 -278.675)"/><path class="a" d="M603.3,282.36h5.356v14.4a9.9,9.9,0,0,1-2.642,7.166q-2.66,2.714-7.6,2.714c-6.768,0-10.243-3.8-10.243-9.772V282.36h5.393v14.477c0,3,1.7,5.392,4.886,5.392,3.149,0,4.85-2.28,4.85-5.212Z" transform="translate(-526.413 -280.862)"/><path class="a" d="M939.919,306.247V282.36h8.759c3.945,0,6.985,1.122,9.12,3.33a11.626,11.626,0,0,1,3.257,8.541,12.345,12.345,0,0,1-3.113,8.614c-2.063,2.28-4.995,3.4-8.758,3.4Zm8.9-19.725h-3.547v15.563h3.764c4.09,0,6.732-2.751,6.732-7.854C955.771,289.49,953.419,286.522,948.822,286.522Z" transform="translate(-819.884 -280.862)"/><path class="a" d="M1118.015,304.06l-1.628-3.764h-9.157l-1.665,3.764h-5.357l11.328-24.321h.8l11.147,24.321Zm-6.225-14.079-2.931,6.623h5.936l-2.859-6.623Z" transform="translate(-953.617 -278.675)"/><path class="a" d="M1294.307,282.579a9.49,9.49,0,0,1,6.261,2.1,6.9,6.9,0,0,1,2.606,5.718,8.015,8.015,0,0,1-4.778,7.238l6.3,8.795h-6.152l-6.3-9.736v-.507c3.764-.434,5.61-2.678,5.61-5.031a4.219,4.219,0,0,0-4.56-4.488h-3.257V306.43h-5.392V282.579Z" transform="translate(-1107.497 -281.045)"/><g transform="translate(88.044)"><path class="b" d="M761.335,281.931h.2l7.129,16.733h4.873l-11.68-25.347h-.886l-11.439,25.347h4.753Z" transform="translate(-749.084 -273.317)"/><path class="b" d="M767.033,451.817c0,1.989-1.394,7.151-7.761,7.151a7.444,7.444,0,0,1-5.923-2.543,7.542,7.542,0,0,1-1.839-4.609h-4.691a12.144,12.144,0,0,0,12.452,11.842,11.921,11.921,0,0,0,12.452-11.842Z" transform="translate(-746.819 -422.244)"/></g></g></svg>