<svg width="24" height="24" viewBox="0 0 24 24" fill="none" xmlns="http://www.w3.org/2000/svg">
<g clip-path="url(#clip0)">
<path fill-rule="evenodd" clip-rule="evenodd" d="M7 21.0001C7 19.8955 7.89543 19.0001 9 19.0001C10.1046 19.0001 11 19.8955 11 21.0001C11 22.1046 10.1046 23.0001 9 23.0001C7.89543 23.0001 7 22.1046 7 21.0001Z" fill="#EEF2F5"/>
<path fill-rule="evenodd" clip-rule="evenodd" d="M18 21.0001C18 19.8955 18.8954 19.0001 20 19.0001C21.1046 19.0001 22 19.8955 22 21.0001C22 22.1046 21.1046 23.0001 20 23.0001C18.8954 23.0001 18 22.1046 18 21.0001Z" fill="#EEF2F5"/>
<path fill-rule="evenodd" clip-rule="evenodd" d="M0 1.00006C0 0.447776 0.447715 6.10352e-05 1 6.10352e-05H5C5.47663 6.10352e-05 5.88701 0.336446 5.98055 0.803804L6.82043 5.00006H23C23.298 5.00006 23.5805 5.13299 23.7705 5.36262C23.9605 5.59224 24.0381 5.89464 23.9823 6.18739L22.3809 14.5849C22.2437 15.2755 21.868 15.8958 21.3195 16.3373C20.7738 16.7766 20.0916 17.011 19.3914 17.0001H9.68864C8.98837 17.011 8.3062 16.7766 7.76048 16.3373C7.21225 15.896 6.83664 15.276 6.69933 14.5857C6.69927 14.5854 6.69939 14.586 6.69933 14.5857L5.02879 6.23926C5.02201 6.21165 5.01638 6.18359 5.01195 6.15514L4.18032 2.00006H1C0.447715 2.00006 0 1.55235 0 1.00006ZM7.22073 7.00006L8.66084 14.1952C8.70656 14.4254 8.83179 14.6322 9.01461 14.7794C9.19743 14.9266 9.42619 15.0047 9.66084 15.0002L9.68 15.0001H19.4L19.4192 15.0002C19.6538 15.0047 19.8826 14.9266 20.0654 14.7794C20.2474 14.6329 20.3723 14.4274 20.4185 14.1985L21.7913 7.00006H7.22073Z" fill="#EEF2F5"/>
</g>
<defs>
<clipPath id="clip0">
<rect width="24" height="24" fill="white"/>
</clipPath>
</defs>
</svg>
