<svg width="17" height="17" viewBox="0 0 17 17" fill="none" xmlns="http://www.w3.org/2000/svg">
<path d="M15.5201 9.01746V16.2609C15.5201 16.6675 15.1872 17.0001 14.7802 17.0001C14.3732 17.0001 14.0403 16.6675 14.0403 16.2609V9.01746C14.0403 8.61094 14.3732 8.27833 14.7802 8.27833C15.1872 8.27833 15.5201 8.61094 15.5201 9.01746ZM14.7802 2.10656C15.1872 2.10656 15.5201 1.77396 15.5201 1.36743V0.739191C15.5201 0.33267 15.1872 6.10352e-05 14.7802 6.10352e-05C14.3732 6.10352e-05 14.0403 0.33267 14.0403 0.739191V1.36743C14.0403 1.77396 14.3732 2.10656 14.7802 2.10656ZM4.40262 8.50006C4.40262 9.71963 3.4037 10.7175 2.20131 10.7175C0.998912 10.7175 -4.5162e-06 9.71963 -4.5162e-06 8.50006C-4.5162e-06 7.2805 0.998912 6.28267 2.20131 6.28267C3.4037 6.28267 4.40262 7.2805 4.40262 8.50006ZM2.92275 8.50006C2.92275 8.09354 2.58977 7.76093 2.20131 7.76093C1.81284 7.76093 1.47986 8.09354 1.47986 8.50006C1.47986 8.90658 1.81284 9.23919 2.20131 9.23919C2.58977 9.23919 2.92275 8.90658 2.92275 8.50006ZM10.6921 12.1403C10.6921 13.3598 9.69314 14.3577 8.49075 14.3577C7.28836 14.3577 6.28944 13.3598 6.28944 12.1403C6.28944 10.9207 7.28836 9.92288 8.49075 9.92288C9.69314 9.92288 10.6921 10.9022 10.6921 12.1403ZM9.21219 12.1403C9.21219 11.7337 8.87922 11.4011 8.49075 11.4011C8.10229 11.4011 7.76931 11.7337 7.76931 12.1403C7.76931 12.5468 8.10229 12.8794 8.49075 12.8794C8.87922 12.8794 9.21219 12.5468 9.21219 12.1403ZM17 5.28486C17 6.50443 16.0011 7.50225 14.7987 7.50225C13.5963 7.50225 12.5974 6.50443 12.5974 5.28486C12.5974 4.0653 13.5963 3.06747 14.7987 3.06747C16.0011 3.06747 17 4.0653 17 5.28486ZM15.5201 5.28486C15.5201 4.87834 15.1872 4.54573 14.7987 4.54573C14.4102 4.54573 14.0772 4.87834 14.0772 5.28486C14.0772 5.69138 14.4102 6.02399 14.7987 6.02399C15.1872 6.02399 15.5201 5.70986 15.5201 5.28486ZM8.49075 15.0968C8.08379 15.0968 7.75082 15.4294 7.75082 15.8359V16.2609C7.75082 16.6675 8.08379 17.0001 8.49075 17.0001C8.89771 17.0001 9.23069 16.6675 9.23069 16.2609V15.8359C9.23069 15.4294 8.89771 15.0968 8.49075 15.0968ZM8.49075 8.99897C8.89771 8.99897 9.23069 8.66636 9.23069 8.25983V0.739191C9.23069 0.33267 8.89771 6.10352e-05 8.49075 6.10352e-05C8.08379 6.10352e-05 7.75082 0.33267 7.75082 0.739191V8.25983C7.75082 8.66636 8.08379 8.99897 8.49075 8.99897ZM2.20131 11.6968C1.79434 11.6968 1.46137 12.0294 1.46137 12.4359V16.2609C1.46137 16.6675 1.79434 17.0001 2.20131 17.0001C2.60827 17.0001 2.94124 16.6675 2.94124 16.2609V12.4359C2.94124 12.0294 2.60827 11.6968 2.20131 11.6968ZM2.20131 5.34026C2.60827 5.34026 2.94124 5.00765 2.94124 4.60113V0.739191C2.94124 0.33267 2.60827 6.10352e-05 2.20131 6.10352e-05C1.79434 6.10352e-05 1.46137 0.33267 1.46137 0.739191V4.60113C1.46137 5.00765 1.79434 5.34026 2.20131 5.34026Z" fill="#EEF2F5"/>
</svg>
