<svg width="20" height="17" viewBox="0 0 20 17" fill="none" xmlns="http://www.w3.org/2000/svg">
<path d="M8.83712 16.5384L2.5947 10.6104C2.32576 10.3686 0 8.21062 0 5.52506C0 2.202 2.15152 6.10352e-05 5.75758 6.10352e-05C7.32576 6.10352e-05 8.81061 0.835406 10 1.82463C11.1856 0.835406 12.6742 6.10352e-05 14.2424 6.10352e-05C17.7159 6.10352e-05 20 2.0701 20 5.52506C20 7.43023 18.7955 9.31708 17.4205 10.6067L17.4053 10.6214L11.1629 16.5384C10.8531 16.8342 10.4353 17.0001 10 17.0001C9.5647 17.0001 9.14691 16.8342 8.83712 16.5384ZM3.85985 9.34639L10 15.1791L16.1288 9.36471C17.1629 8.37549 18.1818 6.93562 18.1818 5.52506C18.1818 3.07398 16.7348 1.75868 14.2424 1.75868C12.4545 1.75868 10.7273 3.56493 10 4.26471C9.35606 3.64187 7.57576 1.75868 5.75758 1.75868C3.26136 1.75868 1.81818 3.07398 1.81818 5.52506C1.81818 6.89165 2.82955 8.41579 3.85985 9.34639Z" fill="#EEF2F5"/>
</svg>
