<svg xmlns="http://www.w3.org/2000/svg" width="58.5" height="47.738" viewBox="0 0 58.5 47.738"><defs><style>.a{fill:none;stroke:#005d8f;stroke-linecap:round;stroke-linejoin:round;stroke-width:1.5px;}.b{fill:#f5b5c9;}</style></defs><g transform="translate(0.75 0.75)"><path class="a" d="M52.387,21.133V47.3a5.816,5.816,0,0,1-5.816,5.816H7.316A5.816,5.816,0,0,1,1.5,47.3V15.317" transform="translate(-1.5 -6.881)"/><path class="a" d="M55.444,9.5H7.316A5.816,5.816,0,0,0,1.5,15.317v5.816H52.387" transform="translate(-1.5 -6.881)"/><line class="a" x2="19.697" transform="translate(31.19 25.883)"/><line class="a" x2="8.485" transform="translate(0 25.883)"/><line class="a" x2="50.887" transform="translate(0 36.061)"/><line class="a" y2="13.142" transform="translate(12.358 33.096)"/><line class="a" y2="4.532" transform="translate(12.358 14.252)"/><line class="a" y2="14.599" transform="translate(25.444 31.639)"/><line class="a" y2="31.986" transform="translate(38.529 14.252)"/><path class="a" d="M58.5,21.133V12.558A3.057,3.057,0,0,0,55.444,9.5h0a3.057,3.057,0,0,0-3.057,3.057v8.575" transform="translate(-1.5 -6.881)"/><path class="a" d="M58.5,21.133V46.75a6.368,6.368,0,0,1-6.37,6.369H46.571" transform="translate(-1.5 -6.881)"/><path class="a" d="M55.444,9.5V46.75a6.369,6.369,0,0,1-6.369,6.369h-2.5" transform="translate(-1.5 -6.881)"/><path class="a" d="M12.646,13.7V8.866a1.986,1.986,0,0,1,3.971,0V9.5" transform="translate(-1.5 -6.881)"/><circle class="a" cx="2.148" cy="2.148" r="2.148" transform="translate(8.998 4.671)"/><path class="a" d="M26.154,13.7V8.866a1.985,1.985,0,0,1,3.97,0V9.5" transform="translate(-1.5 -6.881)"/><circle class="a" cx="2.148" cy="2.148" r="2.148" transform="translate(22.506 4.671)"/><path class="a" d="M39.661,13.7V8.866a1.985,1.985,0,0,1,3.97,0V9.5" transform="translate(-1.5 -6.881)"/><circle class="a" cx="2.148" cy="2.148" r="2.148" transform="translate(36.013 4.671)"/><path class="b" d="M36.117,23.807a.5.5,0,0,0-.244-.863c-1.726-.319-5.766-.251-10.916,5.183a65.275,65.275,0,0,0-4.835,5.828c-1.1-1.12-4.748-4.479-6.517-2.262a.5.5,0,0,0-.009.613c.827,1.1,3.8,5.054,4.682,6.41a2.277,2.277,0,0,0,3.877,0A59.455,59.455,0,0,1,28.132,31.3C29.864,29.474,34.4,25.352,36.117,23.807Z" transform="translate(-1.5 -6.881)"/></g></svg>