<svg xmlns="http://www.w3.org/2000/svg" width="57.721" height="58.154" viewBox="0 0 57.721 58.154"><defs><style>.a{fill:none;stroke:#005d8f;}</style></defs><g transform="translate(0.501 0.654)"><path class="a" d="M9.309,17.769,3.979,8.886,7.533,5.332l8.883,5.33v3.553l9.137,9.137v.761l-3.3,3.046-9.391-9.391ZM47.381,39.343H45.35a28.111,28.111,0,0,1-4.822-.508L35.2,44.927,47.127,58.379A7.187,7.187,0,1,0,57.279,48.226ZM56.01,29.7a15.873,15.873,0,0,0,3.807-15.482,1.151,1.151,0,0,0-2.03-.508L48.9,22.591,41.8,15.485,50.68,6.6a1.137,1.137,0,0,0-.508-2.03A14.791,14.791,0,0,0,34.69,8.378a15.614,15.614,0,0,0-3.046,17.259L6.264,48.226A7.072,7.072,0,0,0,6.01,58.632h0a7.068,7.068,0,0,0,10.406-.254L39,33A14.869,14.869,0,0,0,56.01,29.7Z" transform="translate(-3.848 -3.794)"/></g></svg>