<svg xmlns="http://www.w3.org/2000/svg" width="19.503" height="19.5" viewBox="0 0 19.503 19.5"><defs><style>.a{fill:#005d8f;}</style></defs><path class="a" d="M98.539,94.249c-.809-.831-3.108-2.388-4.615-2.388a1.639,1.639,0,0,0-.9.238,4.958,4.958,0,0,1-1.607.837c-.155,0-.321-.138-.687-.454l-.061-.055a19.22,19.22,0,0,1-1.623-1.518l-.1-.105c-.072-.072-.133-.138-.194-.2-.343-.355-.593-.609-1.474-1.607l-.039-.044c-.421-.476-.7-.787-.715-1.014s.177-.582.67-1.252a2.739,2.739,0,0,0,.072-2.964,13.483,13.483,0,0,0-1.784-2.559l-.055-.066a2.392,2.392,0,0,0-1.878-1,3.326,3.326,0,0,0-1.773.643c-.028.017-.055.039-.083.055a3.555,3.555,0,0,0-1.54,1.839c-.316,1.025-.526,2.354.986,5.119a24.735,24.735,0,0,0,4.376,5.933,26.441,26.441,0,0,0,4.321,3.678A10.045,10.045,0,0,0,95,99.6a3.767,3.767,0,0,0,3.562-1.656C100,96.2,99.4,95.14,98.539,94.249Z" transform="translate(-79.927 -80.1)"/></svg>