<svg xmlns="http://www.w3.org/2000/svg" width="22.72" height="17.04" viewBox="0 0 22.72 17.04"><defs><style>.a{fill:#6286a4;}</style></defs><g transform="translate(3.55 3.55)"><path class="a" d="M35.412,44.73l-4.173-4.172,4.114-3.291a.71.71,0,0,0-.887-1.109L27.81,41.483l-6.656-5.326a.71.71,0,0,0-.887,1.109l4.114,3.291L20.208,44.73a.71.71,0,1,0,1,1l4.26-4.26c.008-.008.011-.019.019-.028l1.876,1.5a.712.712,0,0,0,.887,0l1.875-1.5c.008.008.01.019.019.028l4.26,4.26a.71.71,0,0,0,1-1Z" transform="translate(-20 -36.002)"/></g><path class="a" d="M18.46,16H4.26A4.26,4.26,0,0,0,0,20.26v8.52a4.26,4.26,0,0,0,4.26,4.26h14.2a4.26,4.26,0,0,0,4.26-4.26V20.26A4.26,4.26,0,0,0,18.46,16ZM21.3,28.78a2.843,2.843,0,0,1-2.84,2.84H4.26a2.843,2.843,0,0,1-2.84-2.84V20.26a2.843,2.843,0,0,1,2.84-2.84h14.2a2.843,2.843,0,0,1,2.84,2.84Z" transform="translate(0 -16)"/></svg>