<svg xmlns="http://www.w3.org/2000/svg" width="53.245" height="53.051" viewBox="0 0 53.245 53.051"><defs><style>.a{fill:none;}.a,.c{stroke:#005d8f;stroke-linecap:round;stroke-linejoin:round;stroke-width:1.5px;}.b{fill:#f5b5c9;}.c{fill:#fff;}</style></defs><g transform="translate(0.75 0.75)"><path class="a" d="M41.046,26.949H15.23A13.448,13.448,0,0,0,1.785,40.394V65.051A13.449,13.449,0,0,0,15.234,78.5H39.887A13.449,13.449,0,0,0,53.336,65.051V42.639" transform="translate(-1.785 -26.949)"/><path class="b" d="M40.515,36.46a5.7,5.7,0,0,1-1.207-4.595,40.767,40.767,0,0,0-9.918,7.929,131.412,131.412,0,0,0-9.763,11.764c-2.253-2.287-9.738-9.184-13.269-4.426a.817.817,0,0,0,0,.98C7.893,50.147,14.09,58.383,15.9,61.171a4.595,4.595,0,0,0,7.826,0A120.142,120.142,0,0,1,35.795,46.2c2.018-2.124,5.926-5.8,9.535-9.129a5.8,5.8,0,0,1-4.815-.614Z" transform="translate(1.01 -23.833)"/><line class="c" x2="6.38" y2="5.413" transform="translate(45.058 2.356)"/></g></svg>