<svg xmlns="http://www.w3.org/2000/svg" width="33" height="27.788" viewBox="0 0 33 27.788"><defs><style>.a{fill:#4f92c0;}.b,.c{fill:#fff;}.b{font-size:10px;font-family:CeraPro-Regular, Cera Pro;}</style></defs><circle class="a" cx="8.5" cy="8.5" r="8.5" transform="translate(16)"/><text class="b" transform="translate(24 11)"><tspan x="0" y="0">1</tspan></text><g transform="translate(-2 3.043)"><path class="c" d="M17.538,38a2.538,2.538,0,1,0,2.538,2.538A2.545,2.545,0,0,0,17.538,38Zm0,3.806a1.269,1.269,0,1,1,1.269-1.269A1.273,1.273,0,0,1,17.538,41.806Z" transform="translate(-6.634 -18.331)"/><path class="c" d="M35.538,38a2.538,2.538,0,1,0,2.538,2.538A2.545,2.545,0,0,0,35.538,38Zm0,3.806a1.269,1.269,0,1,1,1.269-1.269A1.273,1.273,0,0,1,35.538,41.806Z" transform="translate(-16.334 -18.331)"/><path class="c" d="M23.5,5.573A2.105,2.105,0,0,0,21.9,4.9H7.583L7.376,3.642A2.072,2.072,0,0,0,5.308,2H2v.966H5.308a1,1,0,0,1,1.034.821L8.513,16.871a2.117,2.117,0,0,0,2.068,1.593H21.643V17.5H10.581a1.033,1.033,0,0,1-1.034-.821L9.34,15.519H20.816a2.1,2.1,0,0,0,2.068-1.69L23.969,7.07A1.665,1.665,0,0,0,23.5,5.573Zm-.569,1.4L21.85,13.732a1.03,1.03,0,0,1-1.034.869H9.185L7.738,5.911H21.9a1.262,1.262,0,0,1,.827.338A.707.707,0,0,1,22.935,6.973Z"/></g></svg>