<svg width="29" height="29" viewBox="0 0 29 29" fill="none" xmlns="http://www.w3.org/2000/svg">
<path d="M22.2394 9.06257H6.77274C5.90274 9.06257 5.2019 8.36173 5.2019 7.49173C5.2019 6.62173 5.90274 5.9209 6.77274 5.9209H22.2394C23.1094 5.9209 23.8102 6.62173 23.8102 7.49173C23.8102 8.36173 23.1094 9.06257 22.2394 9.06257ZM23.8102 14.5001C23.8102 13.6301 23.1094 12.9292 22.2394 12.9292H6.77274C5.90274 12.9292 5.2019 13.6301 5.2019 14.5001C5.2019 15.3701 5.90274 16.0709 6.77274 16.0709H22.2394C23.1094 16.0709 23.8102 15.3701 23.8102 14.5001ZM23.8102 21.5084C23.8102 20.6384 23.1094 19.9376 22.2394 19.9376H6.77274C5.90274 19.9376 5.2019 20.6384 5.2019 21.5084C5.2019 22.3784 5.90274 23.0792 6.77274 23.0792H22.2394C23.1094 23.0792 23.8102 22.3784 23.8102 21.5084Z" fill="white"/>
</svg>
