<svg width="23" height="23" viewBox="0 0 23 23" fill="none" xmlns="http://www.w3.org/2000/svg">
<path fill-rule="evenodd" clip-rule="evenodd" d="M4.27845 14.8202C5.17706 13.9216 6.39584 13.4167 7.66667 13.4167H15.3333C16.6042 13.4167 17.8229 13.9216 18.7216 14.8202C19.6202 15.7188 20.125 16.9376 20.125 18.2084V20.1251C20.125 20.6544 19.6959 21.0834 19.1667 21.0834C18.6374 21.0834 18.2083 20.6544 18.2083 20.1251V18.2084C18.2083 17.4459 17.9054 16.7147 17.3663 16.1755C16.8271 15.6363 16.0958 15.3334 15.3333 15.3334H7.66667C6.90417 15.3334 6.1729 15.6363 5.63373 16.1755C5.09457 16.7147 4.79167 17.4459 4.79167 18.2084V20.1251C4.79167 20.6544 4.36261 21.0834 3.83333 21.0834C3.30406 21.0834 2.875 20.6544 2.875 20.1251V18.2084C2.875 16.9376 3.37983 15.7188 4.27845 14.8202Z" fill="#373941"/>
<path fill-rule="evenodd" clip-rule="evenodd" d="M11.4999 3.83341C9.9121 3.83341 8.62492 5.1206 8.62492 6.70841C8.62492 8.29623 9.9121 9.58341 11.4999 9.58341C13.0877 9.58341 14.3749 8.29623 14.3749 6.70841C14.3749 5.1206 13.0877 3.83341 11.4999 3.83341ZM6.70825 6.70841C6.70825 4.06205 8.85355 1.91675 11.4999 1.91675C14.1463 1.91675 16.2916 4.06205 16.2916 6.70841C16.2916 9.35478 14.1463 11.5001 11.4999 11.5001C8.85355 11.5001 6.70825 9.35478 6.70825 6.70841Z" fill="#373941"/>
</svg>
