<svg width="19" height="19" viewBox="0 0 19 19" fill="none" xmlns="http://www.w3.org/2000/svg">
<path d="M17.346 10.0783V18.1739C17.346 18.6283 16.9739 19 16.519 19C16.0642 19 15.6921 18.6283 15.6921 18.1739V10.0783C15.6921 9.62392 16.0642 9.25218 16.519 9.25218C16.9739 9.25218 17.346 9.62392 17.346 10.0783ZM16.519 2.35433C16.9739 2.35433 17.346 1.98259 17.346 1.52824V0.826087C17.346 0.371739 16.9739 0 16.519 0C16.0642 0 15.6921 0.371739 15.6921 0.826087V1.52824C15.6921 1.98259 16.0642 2.35433 16.519 2.35433ZM4.92057 9.5C4.92057 10.863 3.80413 11.9783 2.46028 11.9783C1.11643 11.9783 -5.04752e-06 10.863 -5.04752e-06 9.5C-5.04752e-06 8.13696 1.11643 7.02174 2.46028 7.02174C3.80413 7.02174 4.92057 8.13696 4.92057 9.5ZM3.2666 9.5C3.2666 9.04565 2.89445 8.67391 2.46028 8.67391C2.02612 8.67391 1.65397 9.04565 1.65397 9.5C1.65397 9.95435 2.02612 10.3261 2.46028 10.3261C2.89445 10.3261 3.2666 9.95435 3.2666 9.5ZM11.95 13.5685C11.95 14.9315 10.8335 16.0467 9.48966 16.0467C8.14581 16.0467 7.02938 14.9315 7.02938 13.5685C7.02938 12.2054 8.14581 11.0902 9.48966 11.0902C10.8335 11.0902 11.95 12.1848 11.95 13.5685ZM10.296 13.5685C10.296 13.1141 9.92383 12.7424 9.48966 12.7424C9.0555 12.7424 8.68335 13.1141 8.68335 13.5685C8.68335 14.0228 9.0555 14.3946 9.48966 14.3946C9.92383 14.3946 10.296 14.0228 10.296 13.5685ZM19 5.90654C19 7.26959 17.8836 8.3848 16.5397 8.3848C15.1959 8.3848 14.0794 7.26959 14.0794 5.90654C14.0794 4.5435 15.1959 3.42828 16.5397 3.42828C17.8836 3.42828 19 4.5435 19 5.90654ZM17.346 5.90654C17.346 5.45219 16.9739 5.08045 16.5397 5.08045C16.1055 5.08045 15.7334 5.45219 15.7334 5.90654C15.7334 6.36089 16.1055 6.73263 16.5397 6.73263C16.9739 6.73263 17.346 6.38154 17.346 5.90654ZM9.48966 16.8728C9.03482 16.8728 8.66268 17.2446 8.66268 17.6989V18.1739C8.66268 18.6283 9.03482 19 9.48966 19C9.9445 19 10.3166 18.6283 10.3166 18.1739V17.6989C10.3166 17.2446 9.9445 16.8728 9.48966 16.8728ZM9.48966 10.0576C9.9445 10.0576 10.3166 9.68586 10.3166 9.23151V0.826087C10.3166 0.371739 9.9445 0 9.48966 0C9.03482 0 8.66268 0.371739 8.66268 0.826087V9.23151C8.66268 9.68586 9.03482 10.0576 9.48966 10.0576ZM2.46028 13.0728C2.00544 13.0728 1.6333 13.4446 1.6333 13.8989V18.1739C1.6333 18.6283 2.00544 19 2.46028 19C2.91512 19 3.28727 18.6283 3.28727 18.1739V13.8989C3.28727 13.4446 2.91512 13.0728 2.46028 13.0728ZM2.46028 5.96846C2.91512 5.96846 3.28727 5.59672 3.28727 5.14237V0.826087C3.28727 0.371739 2.91512 0 2.46028 0C2.00544 0 1.6333 0.371739 1.6333 0.826087V5.14237C1.6333 5.59672 2.00544 5.96846 2.46028 5.96846Z" fill="#373941"/>
</svg>
