<svg width="25" height="25" viewBox="0 0 25 25" fill="none" xmlns="http://www.w3.org/2000/svg">
<g clip-path="url(#clip0)">
<path fill-rule="evenodd" clip-rule="evenodd" d="M7.29175 21.8751C7.29175 20.7245 8.22449 19.7917 9.37508 19.7917C10.5257 19.7917 11.4584 20.7245 11.4584 21.8751C11.4584 23.0257 10.5257 23.9584 9.37508 23.9584C8.22449 23.9584 7.29175 23.0257 7.29175 21.8751Z" fill="#373941"/>
<path fill-rule="evenodd" clip-rule="evenodd" d="M18.75 21.8751C18.75 20.7245 19.6827 19.7917 20.8333 19.7917C21.9839 19.7917 22.9167 20.7245 22.9167 21.8751C22.9167 23.0257 21.9839 23.9584 20.8333 23.9584C19.6827 23.9584 18.75 23.0257 18.75 21.8751Z" fill="#373941"/>
<path fill-rule="evenodd" clip-rule="evenodd" d="M0 1.04167C0 0.46637 0.46637 0 1.04167 0H5.20833C5.70482 0 6.1323 0.350401 6.22974 0.837232L7.10462 5.20833H23.9583C24.2688 5.20833 24.563 5.3468 24.7609 5.58599C24.9588 5.82519 25.0397 6.14018 24.9816 6.44513L23.3134 15.1925C23.1705 15.9119 22.7791 16.5581 22.2078 17.018C21.6394 17.4756 20.9288 17.7197 20.1993 17.7083H10.0923C9.36289 17.7197 8.6523 17.4756 8.08383 17.018C7.51276 16.5583 7.1215 15.9124 6.97847 15.1934C6.97841 15.1931 6.97853 15.1937 6.97847 15.1934L5.23832 6.49917C5.23126 6.47041 5.2254 6.44118 5.22078 6.41153L4.3545 2.08333H1.04167C0.46637 2.08333 0 1.61696 0 1.04167ZM7.52159 7.29166L9.02171 14.7866C9.06934 15.0264 9.19979 15.2418 9.39022 15.3951C9.58066 15.5484 9.81895 15.6299 10.0634 15.6252L10.0833 15.625H20.2083L20.2283 15.6252C20.4727 15.6299 20.711 15.5484 20.9014 15.3951C21.091 15.2425 21.2211 15.0284 21.2693 14.79L22.6992 7.29166H7.52159Z" fill="#373941"/>
</g>
<defs>
<clipPath id="clip0">
<rect width="25" height="25" fill="white"/>
</clipPath>
</defs>
</svg>
