<svg width="22" height="19" viewBox="0 0 22 19" fill="none" xmlns="http://www.w3.org/2000/svg">
<path d="M9.72083 18.484L2.85417 11.8586C2.55833 11.5884 0 9.17651 0 6.175C0 2.46099 2.36667 0 6.33333 0C8.05833 0 9.69167 0.933621 11 2.03922C12.3042 0.933621 13.9417 0 15.6667 0C19.4875 0 22 2.31358 22 6.175C22 8.30431 20.675 10.4131 19.1625 11.8545L19.1458 11.8709L12.2792 18.484C11.9384 18.8146 11.4788 19 11 19C10.5212 19 10.0616 18.8146 9.72083 18.484ZM4.24583 10.4459L11 16.9649L17.7417 10.4664C18.8792 9.36077 20 7.75151 20 6.175C20 3.43556 18.4083 1.96552 15.6667 1.96552C13.7 1.96552 11.8 3.98427 11 4.76638C10.2917 4.07026 8.33333 1.96552 6.33333 1.96552C3.5875 1.96552 2 3.43556 2 6.175C2 7.70237 3.1125 9.40582 4.24583 10.4459Z" fill="#373941"/>
</svg>
