<svg width="9" height="12" viewBox="0 0 9 12" fill="none" xmlns="http://www.w3.org/2000/svg">
<path d="M2.28124 11.882C-0.762676 8.83809 -0.758153 3.90736 2.28124 0.867958C2.41479 0.734411 2.62172 0.712521 2.7796 0.811193L4.29874 1.76072C4.37885 1.81078 4.43881 1.8874 4.46815 1.97718C4.49749 2.06697 4.49435 2.16422 4.45927 2.25192L3.69971 4.15085C3.66726 4.23197 3.60932 4.30034 3.53462 4.34565C3.45992 4.39097 3.37252 4.41077 3.28559 4.40207L1.97754 4.27129C1.48416 5.63679 1.49445 7.14171 1.97754 8.47867L3.28561 8.34787C3.37254 8.33918 3.45995 8.35898 3.53464 8.40429C3.60934 8.44961 3.66728 8.51798 3.69973 8.5991L4.45929 10.498C4.49437 10.5858 4.49751 10.683 4.46817 10.7728C4.43883 10.8626 4.37887 10.9392 4.29877 10.9893L2.77962 11.9388C2.70237 11.9871 2.61103 12.0077 2.52052 11.9974C2.43001 11.9871 2.34566 11.9464 2.28124 11.882ZM5.79202 2.23765C6.06933 2.7075 6.06933 3.29252 5.79202 3.76237C5.69944 3.91924 5.4848 3.94891 5.35331 3.82286L5.21327 3.68866C5.12161 3.60082 5.10094 3.46315 5.16028 3.35093C5.2174 3.24277 5.24725 3.12232 5.24725 3.00001C5.24725 2.8777 5.2174 2.75724 5.16028 2.64909C5.10092 2.53687 5.12161 2.3992 5.21327 2.31136L5.35331 2.17715C5.4848 2.05111 5.69944 2.08078 5.79202 2.23765ZM7.94327 0.10045C9.35281 1.77867 9.35168 4.22268 7.94327 5.89954C7.83841 6.02439 7.6496 6.03421 7.5319 5.92141L7.39601 5.79117C7.28913 5.68872 7.27936 5.52096 7.37421 5.40729C8.53875 4.01186 8.53779 1.98698 7.37421 0.592708C7.27936 0.479036 7.28911 0.311271 7.39601 0.208825L7.5319 0.0785833C7.6496 -0.0342214 7.83841 -0.0244011 7.94327 0.10045ZM6.86581 1.15375C7.71073 2.23943 7.71209 3.75881 6.86581 4.84624C6.76292 4.97845 6.56822 4.99275 6.44731 4.8768L6.31095 4.74604C6.20782 4.64716 6.19381 4.486 6.28083 4.37266C6.90277 3.56257 6.90272 2.43738 6.28083 1.62733C6.19381 1.51399 6.20782 1.35286 6.31095 1.25395L6.44731 1.12319C6.56822 1.00725 6.76292 1.02154 6.86581 1.15375Z" fill="#6FCF97"/>
</svg>
