<svg width="14" height="14" viewBox="0 0 14 14" fill="none" xmlns="http://www.w3.org/2000/svg">
<g clip-path="url(#clip0)">
<path fill-rule="evenodd" clip-rule="evenodd" d="M4.08337 12.2504C4.08337 11.6061 4.60572 11.0837 5.25006 11.0837C5.8944 11.0837 6.41674 11.6061 6.41674 12.2504C6.41674 12.8947 5.8944 13.4171 5.25006 13.4171C4.60572 13.4171 4.08337 12.8947 4.08337 12.2504Z" fill="white"/>
<path fill-rule="evenodd" clip-rule="evenodd" d="M10.5001 12.2504C10.5001 11.6061 11.0224 11.0837 11.6668 11.0837C12.3111 11.0837 12.8334 11.6061 12.8334 12.2504C12.8334 12.8947 12.3111 13.4171 11.6668 13.4171C11.0224 13.4171 10.5001 12.8947 10.5001 12.2504Z" fill="white"/>
<path fill-rule="evenodd" clip-rule="evenodd" d="M-6.10352e-05 0.583333C-6.10352e-05 0.261167 0.26111 0 0.58328 0H2.91664C3.19468 0 3.43407 0.196225 3.48864 0.46885L3.97858 2.91667H13.4168C13.5906 2.91667 13.7554 2.99421 13.8662 3.12816C13.9771 3.26211 14.0224 3.4385 13.9898 3.60927L13.0556 8.50781C12.9756 8.91066 12.7564 9.27252 12.4365 9.53007C12.1181 9.78633 11.7202 9.92306 11.3117 9.91667H5.65172C5.24323 9.92306 4.84529 9.78633 4.52694 9.53007C4.20714 9.27263 3.98803 8.91095 3.90793 8.5083C3.9079 8.50814 3.90796 8.50847 3.90793 8.5083L2.93344 3.63953C2.92949 3.62343 2.9262 3.60706 2.92362 3.59046L2.43849 1.16667H0.58328C0.26111 1.16667 -6.10352e-05 0.905499 -6.10352e-05 0.583333ZM4.21209 4.08333L5.05216 8.28052C5.07883 8.41481 5.15189 8.53543 5.25853 8.62128C5.36518 8.70713 5.49862 8.75273 5.6355 8.75011L5.64668 8.75H11.3168L11.3279 8.75011C11.4648 8.75273 11.5983 8.70713 11.7049 8.62128C11.8111 8.53583 11.8839 8.41593 11.9109 8.2824L12.7117 4.08333H4.21209Z" fill="white"/>
</g>
<defs>
<clipPath id="clip0">
<rect width="14.0002" height="14" fill="white"/>
</clipPath>
</defs>
</svg>
