<svg width="41" height="41" viewBox="0 0 41 41" fill="none" xmlns="http://www.w3.org/2000/svg">
<path d="M28.948 26.7525C29.563 27.3675 29.563 28.3242 28.948 28.9392C28.6405 29.2467 28.2646 29.3833 27.8546 29.3833C27.4446 29.3833 27.0688 29.2467 26.7613 28.9392L20.5088 22.6867L14.2563 28.9392C13.9488 29.2467 13.573 29.3833 13.163 29.3833C12.753 29.3833 12.3772 29.2467 12.0697 28.9392C11.4547 28.3242 11.4547 27.3675 12.0697 26.7525L18.3221 20.5L12.0697 14.2475C11.4547 13.6325 11.4547 12.6758 12.0697 12.0608C12.6847 11.4458 13.6413 11.4458 14.2563 12.0608L20.5088 18.3133L26.7613 12.0608C27.3763 11.4458 28.333 11.4458 28.948 12.0608C29.563 12.6758 29.563 13.6325 28.948 14.2475L22.6954 20.5L28.948 26.7525Z" fill="#373941"/>
</svg>
