<?xml version="1.0" encoding="utf-8"?>
<!-- Generator: Adobe Illustrator 25.0.0, SVG Export Plug-In . SVG Version: 6.00 Build 0)  -->
<svg version="1.1" id="Слой_1" xmlns="http://www.w3.org/2000/svg" xmlns:xlink="http://www.w3.org/1999/xlink" x="0px" y="0px"
	 viewBox="0 0 13 12" style="enable-background:new 0 0 13 12;" xml:space="preserve">
<style type="text/css">
	.st0{fill:#FFC700;}
	.st1{fill:#005D8F;}
</style>
<path class="st0" d="M6,0.5C6.2,0,6.8,0,7,0.5l1.1,3.4C8.1,4,8.3,4.2,8.5,4.2h3.5c0.5,0,0.7,0.6,0.3,0.9L9.5,7.2
	C9.3,7.3,9.3,7.5,9.3,7.7l1.1,3.4c0.1,0.5-0.4,0.8-0.8,0.6L6.8,9.6c-0.2-0.1-0.4-0.1-0.6,0l-2.9,2.1c-0.4,0.3-0.9-0.1-0.8-0.6
	l1.1-3.4c0.1-0.2,0-0.4-0.2-0.6L0.6,5.1C0.2,4.8,0.4,4.2,0.9,4.2h3.5c0.2,0,0.4-0.1,0.5-0.3L6,0.5z"/>
<path class="st1" d="M10,12c-0.2,0-0.3,0-0.4-0.1c-0.1,0-2.5-1.7-3.1-2.2l-3.1,2.2c-0.3,0.2-0.8,0.2-1.1-0.2
	c-0.1-0.1-0.1-0.3-0.1-0.4c0-0.1,0-0.2,0-0.2l0,0c0-0.1,0.8-2.4,1.2-3.5c-1-0.7-3-2.1-3.1-2.2C0,5.1-0.1,4.7,0.1,4.3
	C0.3,4.1,0.5,4,0.8,4h3.8l1.2-3.5C5.9,0.1,6.3-0.1,6.7,0C7,0.1,7.2,0.3,7.2,0.5L8.4,4h3.8C12.7,4,13,4.4,13,4.8
	c0,0.2-0.1,0.5-0.3,0.6c-0.1,0.1-2.1,1.5-3.1,2.2c0.4,1.1,1.1,3.4,1.2,3.5c0,0.1,0,0.2,0,0.3C10.8,11.7,10.5,12,10,12
	C10,12,10,12,10,12z M6.5,9.1l0.2,0.1c1.1,0.8,3.2,2.2,3.2,2.3c0.1,0.1,0.3,0,0.3-0.1c0,0,0-0.1,0-0.1c0,0,0-0.1,0-0.1
	c0,0-0.9-2.6-1.2-3.7L9,7.3l0.2-0.1C9.4,7,12.3,5,12.4,4.9c0.1-0.1,0.1-0.2,0-0.4c0-0.1-0.1-0.1-0.2-0.1H8L6.7,0.7
	c0-0.1-0.1-0.2-0.2-0.2c-0.1,0-0.2,0.1-0.2,0.2L5,4.5H0.8c-0.1,0-0.2,0.1-0.2,0.2c0,0.1,0,0.1,0.1,0.2C0.7,5,3.6,7,3.9,7.2L4,7.3
	L4,7.5c-0.4,1-1.2,3.4-1.2,3.7l0,0c0,0,0,0.1,0,0.1c0,0.1,0.1,0.2,0.2,0.2c0.1,0,0.1,0,0.1,0L6.5,9.1z"/>
</svg>
